<?xml version="1.0" encoding="UTF-8" standalone="no"?>
<!DOCTYPE svg PUBLIC "-//W3C//DTD SVG 1.1//EN"
 "http://www.w3.org/Graphics/SVG/1.1/DTD/svg11.dtd">
<!-- Generated by graphviz version 2.41.20190308.1641 (20190308.1641)
 -->
<!-- Title: bthread Pages: 1 -->
<svg width="2052pt" height="811pt"
 viewBox="0.00 0.00 2052.00 811.02" xmlns="http://www.w3.org/2000/svg" xmlns:xlink="http://www.w3.org/1999/xlink">
<g id="graph0" class="graph" transform="scale(1 1) rotate(0) translate(4 807.02)">
<title>bthread</title>
<polygon fill="#eeeeee" stroke="transparent" points="-4,4 -4,-807.02 2048,-807.02 2048,4 -4,4"/>
<g id="clust1" class="cluster">
<title>cluster_execution_queue</title>
<polygon fill="#eeeeee" stroke="black" points="8,-8 8,-755.02 969,-755.02 969,-8 8,-8"/>
</g>
<g id="clust2" class="cluster">
<title>cluster_before_more_tasks</title>
<polygon fill="#eeeeee" stroke="black" points="1516,-625.39 1516,-795.02 2036,-795.02 2036,-625.39 1516,-625.39"/>
<text text-anchor="middle" x="1776" y="-778.42" font-family="Times,serif" font-size="14.00">queue status before checking for more tasks</text>
<text text-anchor="middle" x="1776" y="-762.42" font-family="Times,serif" font-size="14.00">this is the most complicated situation</text>
</g>
<g id="clust4" class="cluster">
<title>cluster_after_more_tasks</title>
<polygon fill="#eeeeee" stroke="black" points="977,-620.76 977,-795.02 1508,-795.02 1508,-620.76 977,-620.76"/>
<text text-anchor="middle" x="1242.5" y="-778.42" font-family="Times,serif" font-size="14.00">queue status after checking for more tasks</text>
<text text-anchor="middle" x="1242.5" y="-762.42" font-family="Times,serif" font-size="14.00">this is the most complicated situation</text>
</g>
<!-- bthread_execution_queue_start -->
<g id="node1" class="node">
<title>bthread_execution_queue_start</title>
<ellipse fill="#555555" stroke="#555555" cx="816" cy="-729.02" rx="67.5" ry="18"/>
<text text-anchor="middle" x="816" y="-726.32" font-family="Times,serif" font-size="8.00" fill="#ffffff">bthread::execution_queue_start</text>
</g>
<!-- bthread_execution_queue_start_anno -->
<g id="node2" class="node">
<title>bthread_execution_queue_start_anno</title>
<polygon fill="#555555" stroke="#555555" points="955,-669.39 817,-669.39 817,-633.39 961,-633.39 961,-663.39 955,-669.39"/>
<polyline fill="none" stroke="#555555" points="955,-669.39 955,-663.39 "/>
<polyline fill="none" stroke="#555555" points="961,-663.39 955,-663.39 "/>
<text text-anchor="middle" x="889" y="-653.19" font-family="Times,serif" font-size="8.00" fill="#ffffff">create an exec queue</text>
<text text-anchor="middle" x="889" y="-644.19" font-family="Times,serif" font-size="8.00" fill="#ffffff">and return the queue id as output param</text>
</g>
<!-- bthread_execution_queue_start&#45;&gt;bthread_execution_queue_start_anno -->
<g id="edge2" class="edge">
<title>bthread_execution_queue_start&#45;&gt;bthread_execution_queue_start_anno</title>
<path fill="none" stroke="black" stroke-dasharray="5,2" d="M832.2,-711.24C844.13,-698.88 860.3,-682.12 872.34,-669.65"/>
</g>
<!-- ExecutionQueue_create -->
<g id="node3" class="node">
<title>ExecutionQueue_create</title>
<ellipse fill="#555555" stroke="#555555" cx="745" cy="-651.39" rx="53.77" ry="18"/>
<text text-anchor="middle" x="745" y="-648.69" font-family="Times,serif" font-size="8.00" fill="#ffffff">ExecutionQueue::create</text>
</g>
<!-- bthread_execution_queue_start&#45;&gt;ExecutionQueue_create -->
<g id="edge1" class="edge">
<title>bthread_execution_queue_start&#45;&gt;ExecutionQueue_create</title>
<path fill="none" stroke="black" d="M800.24,-711.24C790.62,-700.98 778.15,-687.7 767.5,-676.36"/>
<polygon fill="black" stroke="black" points="769.87,-673.76 760.47,-668.87 764.76,-678.56 769.87,-673.76"/>
</g>
<!-- ExecutionQueueBase_create -->
<g id="node4" class="node">
<title>ExecutionQueueBase_create</title>
<ellipse fill="#555555" stroke="#555555" cx="775" cy="-566.76" rx="62.92" ry="18"/>
<text text-anchor="middle" x="775" y="-564.06" font-family="Times,serif" font-size="8.00" fill="#ffffff">ExecutionQueueBase::create</text>
</g>
<!-- ExecutionQueue_create&#45;&gt;ExecutionQueueBase_create -->
<g id="edge3" class="edge">
<title>ExecutionQueue_create&#45;&gt;ExecutionQueueBase_create</title>
<path fill="none" stroke="black" d="M751.22,-633.27C755.28,-622.08 760.67,-607.24 765.29,-594.51"/>
<polygon fill="black" stroke="black" points="768.67,-595.46 768.79,-584.86 762.09,-593.07 768.67,-595.46"/>
</g>
<!-- ExecutionQueueBase_create_anno -->
<g id="node5" class="node">
<title>ExecutionQueueBase_create_anno</title>
<polygon fill="#555555" stroke="#555555" points="859,-490.02 721,-490.02 721,-454.02 865,-454.02 865,-484.02 859,-490.02"/>
<polyline fill="none" stroke="#555555" points="859,-490.02 859,-484.02 "/>
<polyline fill="none" stroke="#555555" points="865,-484.02 859,-484.02 "/>
<text text-anchor="middle" x="793" y="-469.32" font-family="Times,serif" font-size="8.00" fill="#ffffff">initialize execution queue member vars</text>
</g>
<!-- ExecutionQueueBase_create&#45;&gt;ExecutionQueueBase_create_anno -->
<g id="edge4" class="edge">
<title>ExecutionQueueBase_create&#45;&gt;ExecutionQueueBase_create_anno</title>
<path fill="none" stroke="black" stroke-dasharray="5,2" d="M778.3,-548.75C781.53,-532.12 786.42,-506.93 789.66,-490.23"/>
</g>
<!-- bthread_execution_queue_execute -->
<g id="node6" class="node">
<title>bthread_execution_queue_execute</title>
<ellipse fill="#555555" stroke="#555555" cx="267" cy="-729.02" rx="73.98" ry="18"/>
<text text-anchor="middle" x="267" y="-726.32" font-family="Times,serif" font-size="8.00" fill="#ffffff">bthread::execution_queue_execute</text>
</g>
<!-- ExecutionQueue_execute -->
<g id="node7" class="node">
<title>ExecutionQueue_execute</title>
<ellipse fill="#555555" stroke="#555555" cx="267" cy="-651.39" rx="56.95" ry="18"/>
<text text-anchor="middle" x="267" y="-648.69" font-family="Times,serif" font-size="8.00" fill="#ffffff">ExecutionQueue::execute</text>
</g>
<!-- bthread_execution_queue_execute&#45;&gt;ExecutionQueue_execute -->
<g id="edge5" class="edge">
<title>bthread_execution_queue_execute&#45;&gt;ExecutionQueue_execute</title>
<path fill="none" stroke="black" d="M267,-710.86C267,-701.67 267,-690.14 267,-679.75"/>
<polygon fill="black" stroke="black" points="270.5,-679.49 267,-669.49 263.5,-679.49 270.5,-679.49"/>
</g>
<!-- ExecutionQueue_allocate_node -->
<g id="node8" class="node">
<title>ExecutionQueue_allocate_node</title>
<ellipse fill="#555555" stroke="#555555" cx="132" cy="-566.76" rx="68.77" ry="18"/>
<text text-anchor="middle" x="132" y="-564.06" font-family="Times,serif" font-size="8.00" fill="#ffffff">ExecutionQueue::allocate_node</text>
</g>
<!-- ExecutionQueue_execute&#45;&gt;ExecutionQueue_allocate_node -->
<g id="edge6" class="edge">
<title>ExecutionQueue_execute&#45;&gt;ExecutionQueue_allocate_node</title>
<path fill="none" stroke="black" d="M241.92,-635.04C220.69,-622.05 190.05,-603.29 166.5,-588.88"/>
<polygon fill="black" stroke="black" points="168.22,-585.83 157.86,-583.59 164.56,-591.8 168.22,-585.83"/>
<text text-anchor="middle" x="202" y="-604.46" font-family="Times,serif" font-size="7.00">1</text>
</g>
<!-- TaskNode_TaskNode -->
<g id="node9" class="node">
<title>TaskNode_TaskNode</title>
<ellipse fill="#555555" stroke="#555555" cx="267" cy="-566.76" rx="48.56" ry="18"/>
<text text-anchor="middle" x="267" y="-564.06" font-family="Times,serif" font-size="8.00" fill="#ffffff">TaskNode::TaskNode</text>
</g>
<!-- ExecutionQueue_execute&#45;&gt;TaskNode_TaskNode -->
<g id="edge7" class="edge">
<title>ExecutionQueue_execute&#45;&gt;TaskNode_TaskNode</title>
<path fill="none" stroke="black" d="M267,-633.27C267,-622.19 267,-607.53 267,-594.89"/>
<polygon fill="black" stroke="black" points="270.5,-594.86 267,-584.86 263.5,-594.86 270.5,-594.86"/>
<text text-anchor="middle" x="295.5" y="-604.46" font-family="Times,serif" font-size="7.00">2. inplacement new</text>
</g>
<!-- ExecutionQueueBase_start_execute -->
<g id="node10" class="node">
<title>ExecutionQueueBase_start_execute</title>
<ellipse fill="#555555" stroke="#555555" cx="410" cy="-566.76" rx="76.02" ry="18"/>
<text text-anchor="middle" x="410" y="-564.06" font-family="Times,serif" font-size="8.00" fill="#ffffff">ExecutionQueueBase::start_execute</text>
</g>
<!-- ExecutionQueue_execute&#45;&gt;ExecutionQueueBase_start_execute -->
<g id="edge8" class="edge">
<title>ExecutionQueue_execute&#45;&gt;ExecutionQueueBase_start_execute</title>
<path fill="none" stroke="black" d="M293.23,-635.24C315.78,-622.21 348.53,-603.28 373.61,-588.79"/>
<polygon fill="black" stroke="black" points="375.57,-591.7 382.48,-583.67 372.07,-585.64 375.57,-591.7"/>
<text text-anchor="middle" x="350" y="-604.46" font-family="Times,serif" font-size="7.00">3</text>
</g>
<!-- ExecutionQueueBase_exchange_head -->
<g id="node11" class="node">
<title>ExecutionQueueBase_exchange_head</title>
<ellipse fill="#555555" stroke="#555555" cx="457" cy="-472.02" rx="92.76" ry="25"/>
<text text-anchor="middle" x="457" y="-478.32" font-family="Times,serif" font-size="8.00" fill="#ffffff">_head.exchange(node, mo_release)</text>
<text text-anchor="middle" x="457" y="-469.32" font-family="Times,serif" font-size="8.00" fill="#ffffff">//exchange is enough</text>
<text text-anchor="middle" x="457" y="-460.32" font-family="Times,serif" font-size="8.00" fill="#ffffff">becase &amp;_head is unchanged</text>
</g>
<!-- ExecutionQueueBase_start_execute&#45;&gt;ExecutionQueueBase_exchange_head -->
<g id="edge9" class="edge">
<title>ExecutionQueueBase_start_execute&#45;&gt;ExecutionQueueBase_exchange_head</title>
<path fill="none" stroke="black" d="M418.62,-548.75C424.66,-536.83 432.94,-520.5 440.26,-506.06"/>
<polygon fill="black" stroke="black" points="443.5,-507.41 444.89,-496.9 437.25,-504.24 443.5,-507.41"/>
<text text-anchor="middle" x="473.5" y="-520.46" font-family="Times,serif" font-size="7.00">1. append to head of queue</text>
</g>
<!-- ExecutionQueueBase__execute_tasks -->
<g id="node13" class="node">
<title>ExecutionQueueBase__execute_tasks</title>
<ellipse fill="#555555" stroke="#555555" cx="338" cy="-385.27" rx="79.32" ry="18"/>
<text text-anchor="middle" x="338" y="-382.57" font-family="Times,serif" font-size="8.00" fill="#ffffff">ExecutionQueueBase::_execute_tasks</text>
</g>
<!-- ExecutionQueueBase_start_execute&#45;&gt;ExecutionQueueBase__execute_tasks -->
<g id="edge19" class="edge">
<title>ExecutionQueueBase_start_execute&#45;&gt;ExecutionQueueBase__execute_tasks</title>
<path fill="none" stroke="black" d="M354.24,-554.48C344.5,-552.55 334.46,-550.58 325,-548.76 220.37,-528.69 156.56,-580.74 91,-496.76 42.01,-434.01 166.12,-405.92 255.62,-394.1"/>
<polygon fill="black" stroke="black" points="256.33,-397.54 265.81,-392.8 255.44,-390.59 256.33,-397.54"/>
<text text-anchor="middle" x="130" y="-469.72" font-family="Times,serif" font-size="7.00">6. if failed to run in bthread</text>
</g>
<!-- ExecuttonQueeuBase_Start_execute_inplace -->
<g id="node16" class="node">
<title>ExecuttonQueeuBase_Start_execute_inplace</title>
<ellipse fill="#555555" stroke="#555555" cx="702" cy="-305.27" rx="41.95" ry="18"/>
<text text-anchor="middle" x="702" y="-302.57" font-family="Times,serif" font-size="8.00" fill="#ffffff">inpalce execution</text>
</g>
<!-- ExecutionQueueBase_start_execute&#45;&gt;ExecuttonQueeuBase_Start_execute_inplace -->
<g id="edge11" class="edge">
<title>ExecutionQueueBase_start_execute&#45;&gt;ExecuttonQueeuBase_Start_execute_inplace</title>
<path fill="none" stroke="black" d="M479.8,-559.57C555.84,-551.07 669.67,-532.59 692,-496.76 723.53,-446.18 715.67,-372.55 708.22,-333.29"/>
<polygon fill="black" stroke="black" points="711.63,-332.51 706.21,-323.41 704.77,-333.9 711.63,-332.51"/>
<text text-anchor="middle" x="731" y="-422.97" font-family="Times,serif" font-size="7.00">3. if inplace</text>
</g>
<!-- bthread_start_urgent -->
<g id="node17" class="node">
<title>bthread_start_urgent</title>
<ellipse fill="#555555" stroke="#555555" cx="226" cy="-472.02" rx="47.79" ry="18"/>
<text text-anchor="middle" x="226" y="-469.32" font-family="Times,serif" font-size="8.00" fill="#ffffff">bthread_start_urgent</text>
</g>
<!-- ExecutionQueueBase_start_execute&#45;&gt;bthread_start_urgent -->
<g id="edge15" class="edge">
<title>ExecutionQueueBase_start_execute&#45;&gt;bthread_start_urgent</title>
<path fill="none" stroke="black" d="M353.87,-554.57C304.76,-544.72 241.06,-531.79 240,-530.76 231.79,-522.84 228.06,-510.97 226.47,-500.06"/>
<polygon fill="black" stroke="black" points="229.95,-499.67 225.53,-490.04 222.98,-500.33 229.95,-499.67"/>
<text text-anchor="middle" x="289.5" y="-520.46" font-family="Times,serif" font-size="7.00">4. if urgent, create bthread and run</text>
</g>
<!-- bthread_start_background -->
<g id="node18" class="node">
<title>bthread_start_background</title>
<ellipse fill="#555555" stroke="#555555" cx="625" cy="-472.02" rx="57.71" ry="18"/>
<text text-anchor="middle" x="625" y="-469.32" font-family="Times,serif" font-size="8.00" fill="#ffffff">bthread_start_background</text>
</g>
<!-- ExecutionQueueBase_start_execute&#45;&gt;bthread_start_background -->
<g id="edge16" class="edge">
<title>ExecutionQueueBase_start_execute&#45;&gt;bthread_start_background</title>
<path fill="none" stroke="black" d="M456.02,-552.43C474.87,-546.49 496.75,-538.97 516,-530.76 541.57,-519.86 569.23,-505.17 590.29,-493.33"/>
<polygon fill="black" stroke="black" points="592.21,-496.27 599.17,-488.29 588.75,-490.18 592.21,-496.27"/>
<text text-anchor="middle" x="588.5" y="-524.46" font-family="Times,serif" font-size="7.00">5. if !urgent, create bthread</text>
<text text-anchor="middle" x="588.5" y="-516.46" font-family="Times,serif" font-size="7.00">put to bthread queue</text>
</g>
<!-- return; -->
<g id="node26" class="node">
<title>return;</title>
<ellipse fill="#555555" stroke="#555555" cx="319" cy="-472.02" rx="27" ry="18"/>
<text text-anchor="middle" x="319" y="-469.32" font-family="Times,serif" font-size="8.00" fill="#ffffff">return;</text>
</g>
<!-- ExecutionQueueBase_start_execute&#45;&gt;return; -->
<g id="edge10" class="edge">
<title>ExecutionQueueBase_start_execute&#45;&gt;return;</title>
<path fill="none" stroke="black" d="M380.83,-550.05C372.26,-544.62 363.25,-538.05 356,-530.76 346.58,-521.3 338.32,-509.04 332,-498.26"/>
<polygon fill="black" stroke="black" points="334.91,-496.29 326.97,-489.27 328.8,-499.7 334.91,-496.29"/>
<text text-anchor="middle" x="390" y="-520.46" font-family="Times,serif" font-size="7.00">2. if queue is not empty</text>
</g>
<!-- ExecutionQueueBase__execute -->
<g id="node12" class="node">
<title>ExecutionQueueBase__execute</title>
<ellipse fill="#555555" stroke="#555555" cx="541" cy="-210.52" rx="68.13" ry="18"/>
<text text-anchor="middle" x="541" y="-207.82" font-family="Times,serif" font-size="8.00" fill="#ffffff">ExecutionQueueBase::_execute</text>
</g>
<!-- ExecuttonQueeuBase__execute_func -->
<g id="node20" class="node">
<title>ExecuttonQueeuBase__execute_func</title>
<ellipse fill="red" stroke="red" cx="413" cy="-115.38" rx="96.33" ry="18.27"/>
<text text-anchor="middle" x="413" y="-117.18" font-family="Times,serif" font-size="8.00" fill="#ffffff">_execute_func(</text>
<text text-anchor="middle" x="413" y="-108.18" font-family="Times,serif" font-size="8.00" fill="#ffffff">_meta, _type_specific_function, iter)</text>
</g>
<!-- ExecutionQueueBase__execute&#45;&gt;ExecuttonQueeuBase__execute_func -->
<g id="edge20" class="edge">
<title>ExecutionQueueBase__execute&#45;&gt;ExecuttonQueeuBase__execute_func</title>
<path fill="none" stroke="black" d="M499.17,-196.11C487.8,-192.61 475.46,-188.93 464,-185.77 431.37,-176.78 410.92,-194.38 390,-167.77 384.02,-160.16 386.11,-150.75 390.91,-142.08"/>
<polygon fill="black" stroke="black" points="393.83,-144.01 396.43,-133.73 387.99,-140.14 393.83,-144.01"/>
<text text-anchor="middle" x="448" y="-161.47" font-family="Times,serif" font-size="7.00">1. if head != NULL &amp;&amp; head&#45;&gt;stop_task</text>
<text text-anchor="middle" x="448" y="-153.47" font-family="Times,serif" font-size="7.00">execute head task and return ESTOP</text>
</g>
<!-- ExecutionQueueBase__execute&#45;&gt;ExecuttonQueeuBase__execute_func -->
<g id="edge23" class="edge">
<title>ExecutionQueueBase__execute&#45;&gt;ExecuttonQueeuBase__execute_func</title>
<path fill="none" stroke="black" d="M534.33,-192.5C528.55,-179.73 519.06,-162.65 506,-151.77 497.67,-144.83 487.83,-139.16 477.72,-134.56"/>
<polygon fill="black" stroke="black" points="478.98,-131.29 468.41,-130.64 476.26,-137.74 478.98,-131.29"/>
<text text-anchor="middle" x="539.5" y="-157.47" font-family="Times,serif" font-size="7.00">3. if iter valid</text>
</g>
<!-- TaskIteratorBase_TaskIteratorBase -->
<g id="node22" class="node">
<title>TaskIteratorBase_TaskIteratorBase</title>
<ellipse fill="#555555" stroke="#555555" cx="226" cy="-115.38" rx="73.35" ry="18"/>
<text text-anchor="middle" x="226" y="-112.68" font-family="Times,serif" font-size="8.00" fill="#ffffff">TaskIteratorBase::TaskIteratorBase</text>
</g>
<!-- ExecutionQueueBase__execute&#45;&gt;TaskIteratorBase_TaskIteratorBase -->
<g id="edge22" class="edge">
<title>ExecutionQueueBase__execute&#45;&gt;TaskIteratorBase_TaskIteratorBase</title>
<path fill="none" stroke="black" d="M501.82,-195.77C489.82,-192.01 476.48,-188.28 464,-185.77 384.32,-169.71 356.2,-200.95 282,-167.77 268.37,-161.67 255.85,-150.93 246.12,-140.83"/>
<polygon fill="black" stroke="black" points="248.58,-138.34 239.25,-133.33 243.42,-143.07 248.58,-138.34"/>
<text text-anchor="middle" x="332.5" y="-157.47" font-family="Times,serif" font-size="7.00">2. create a task iterator for excution</text>
</g>
<!-- ExecutionQueueBase__execute_tasks_anno -->
<g id="node14" class="node">
<title>ExecutionQueueBase__execute_tasks_anno</title>
<polygon fill="#555555" stroke="#555555" points="595,-323.27 441,-323.27 441,-287.27 601,-287.27 601,-317.27 595,-323.27"/>
<polyline fill="none" stroke="#555555" points="595,-323.27 595,-317.27 "/>
<polyline fill="none" stroke="#555555" points="601,-317.27 595,-317.27 "/>
<text text-anchor="middle" x="521" y="-302.57" font-family="Times,serif" font-size="8.00" fill="#ffffff">contains a loop that keeps the queue running</text>
</g>
<!-- ExecutionQueueBase__execute_tasks&#45;&gt;ExecutionQueueBase__execute_tasks_anno -->
<g id="edge34" class="edge">
<title>ExecutionQueueBase__execute_tasks&#45;&gt;ExecutionQueueBase__execute_tasks_anno</title>
<path fill="none" stroke="black" stroke-dasharray="5,2" d="M410.87,-377.9C437.11,-372.99 465.92,-364.37 489,-349.27 498.81,-342.85 506.72,-332.33 512.22,-323.3"/>
</g>
<!-- ExecutionQueueBase__execute_tasks_loop -->
<g id="node25" class="node">
<title>ExecutionQueueBase__execute_tasks_loop</title>
<ellipse fill="#555555" stroke="#555555" cx="292" cy="-305.27" rx="43.22" ry="18"/>
<text text-anchor="middle" x="292" y="-302.57" font-family="Times,serif" font-size="8.00" fill="#ffffff">execute tasks loop</text>
</g>
<!-- ExecutionQueueBase__execute_tasks&#45;&gt;ExecutionQueueBase__execute_tasks_loop -->
<g id="edge27" class="edge">
<title>ExecutionQueueBase__execute_tasks&#45;&gt;ExecutionQueueBase__execute_tasks_loop</title>
<path fill="none" stroke="black" d="M328.02,-367.34C321.89,-356.95 313.92,-343.43 307.04,-331.76"/>
<polygon fill="black" stroke="black" points="309.9,-329.73 301.8,-322.89 303.87,-333.28 309.9,-329.73"/>
<text text-anchor="middle" x="319" y="-342.97" font-family="Times,serif" font-size="7.00">1</text>
</g>
<!-- ExecutionQueueBase__execute_tasks_destroy -->
<g id="node31" class="node">
<title>ExecutionQueueBase__execute_tasks_destroy</title>
<ellipse fill="#555555" stroke="#555555" cx="388" cy="-305.27" rx="35.34" ry="18"/>
<text text-anchor="middle" x="388" y="-302.57" font-family="Times,serif" font-size="8.00" fill="#ffffff">destroy queue</text>
</g>
<!-- ExecutionQueueBase__execute_tasks&#45;&gt;ExecutionQueueBase__execute_tasks_destroy -->
<g id="edge33" class="edge">
<title>ExecutionQueueBase__execute_tasks&#45;&gt;ExecutionQueueBase__execute_tasks_destroy</title>
<path fill="none" stroke="black" d="M348.85,-367.34C355.62,-356.77 364.47,-342.98 372.03,-331.18"/>
<polygon fill="black" stroke="black" points="375.06,-332.93 377.51,-322.62 369.17,-329.15 375.06,-332.93"/>
<text text-anchor="middle" x="425" y="-342.97" font-family="Times,serif" font-size="7.00">2. if it found queue stopped when looping</text>
</g>
<!-- ExecutionQueueBase_return_task_node -->
<g id="node15" class="node">
<title>ExecutionQueueBase_return_task_node</title>
<ellipse fill="#555555" stroke="#555555" cx="878" cy="-210.52" rx="83.27" ry="18"/>
<text text-anchor="middle" x="878" y="-207.82" font-family="Times,serif" font-size="8.00" fill="#ffffff">ExecutionQueueBase::return_task_node</text>
</g>
<!-- ExecuttonQueeuBase_Start_execute_inplace&#45;&gt;ExecutionQueueBase__execute -->
<g id="edge12" class="edge">
<title>ExecuttonQueeuBase_Start_execute_inplace&#45;&gt;ExecutionQueueBase__execute</title>
<path fill="none" stroke="black" d="M677.9,-290.38C651.07,-274.93 607.45,-249.8 576.67,-232.07"/>
<polygon fill="black" stroke="black" points="578.37,-229.01 567.96,-227.05 574.88,-235.07 578.37,-229.01"/>
<text text-anchor="middle" x="666" y="-258.97" font-family="Times,serif" font-size="7.00">1. execute directly</text>
</g>
<!-- ExecuttonQueeuBase_Start_execute_inplace&#45;&gt;ExecutionQueueBase_return_task_node -->
<g id="edge14" class="edge">
<title>ExecuttonQueeuBase_Start_execute_inplace&#45;&gt;ExecutionQueueBase_return_task_node</title>
<path fill="none" stroke="black" d="M727.59,-290.78C756.79,-275.4 804.86,-250.06 838.79,-232.18"/>
<polygon fill="black" stroke="black" points="840.74,-235.11 847.95,-227.35 837.47,-228.92 840.74,-235.11"/>
<text text-anchor="middle" x="831.5" y="-262.97" font-family="Times,serif" font-size="7.00">3 if there is no more tasks</text>
<text text-anchor="middle" x="831.5" y="-254.97" font-family="Times,serif" font-size="7.00">release memory return</text>
</g>
<!-- ExecutionQueueBase__more_tasks -->
<g id="node19" class="node">
<title>ExecutionQueueBase__more_tasks</title>
<ellipse fill="#555555" stroke="#555555" cx="702" cy="-210.52" rx="74.75" ry="18"/>
<text text-anchor="middle" x="702" y="-207.82" font-family="Times,serif" font-size="8.00" fill="#ffffff">ExecutionQueueBase::_more_tasks</text>
</g>
<!-- ExecuttonQueeuBase_Start_execute_inplace&#45;&gt;ExecutionQueueBase__more_tasks -->
<g id="edge13" class="edge">
<title>ExecuttonQueeuBase_Start_execute_inplace&#45;&gt;ExecutionQueueBase__more_tasks</title>
<path fill="none" stroke="black" d="M702,-287.26C702,-273.74 702,-254.58 702,-238.91"/>
<polygon fill="black" stroke="black" points="705.5,-238.74 702,-228.74 698.5,-238.74 705.5,-238.74"/>
<text text-anchor="middle" x="705.5" y="-258.97" font-family="Times,serif" font-size="7.00">2.</text>
</g>
<!-- bthread_start_urgent&#45;&gt;ExecutionQueueBase__execute_tasks -->
<g id="edge17" class="edge">
<title>bthread_start_urgent&#45;&gt;ExecutionQueueBase__execute_tasks</title>
<path fill="none" stroke="black" d="M246.28,-455.67C263.6,-442.56 288.74,-423.54 308.33,-408.72"/>
<polygon fill="black" stroke="black" points="310.48,-411.48 316.34,-402.66 306.25,-405.9 310.48,-411.48"/>
</g>
<!-- bthread_start_background&#45;&gt;ExecutionQueueBase__execute_tasks -->
<g id="edge18" class="edge">
<title>bthread_start_background&#45;&gt;ExecutionQueueBase__execute_tasks</title>
<path fill="none" stroke="black" d="M589.55,-457.7C579.71,-454.16 568.98,-450.44 559,-447.27 505.21,-430.19 443.22,-413.32 398.6,-401.67"/>
<polygon fill="black" stroke="black" points="399.35,-398.24 388.79,-399.11 397.59,-405.02 399.35,-398.24"/>
</g>
<!-- ExecutionQueueBase__more_tasks_new_head -->
<g id="node23" class="node">
<title>ExecutionQueueBase__more_tasks_new_head</title>
<ellipse fill="#555555" stroke="#555555" cx="707" cy="-115.38" rx="108.18" ry="18"/>
<text text-anchor="middle" x="707" y="-112.68" font-family="Times,serif" font-size="8.00" fill="#ffffff">_head.compare_exchange_strong(new_head, desired)</text>
</g>
<!-- ExecutionQueueBase__more_tasks&#45;&gt;ExecutionQueueBase__more_tasks_new_head -->
<g id="edge24" class="edge">
<title>ExecutionQueueBase__more_tasks&#45;&gt;ExecutionQueueBase__more_tasks_new_head</title>
<path fill="none" stroke="black" d="M702.92,-192.44C703.65,-178.87 704.68,-159.63 705.52,-143.89"/>
<polygon fill="black" stroke="black" points="709.03,-143.85 706.07,-133.67 702.04,-143.47 709.03,-143.85"/>
<text text-anchor="middle" x="708" y="-157.47" font-family="Times,serif" font-size="7.00">1.</text>
</g>
<!-- ExecutionQueueBase__more_tasks_reverse_queue -->
<g id="node24" class="node">
<title>ExecutionQueueBase__more_tasks_reverse_queue</title>
<ellipse fill="#555555" stroke="#555555" cx="897" cy="-115.38" rx="64.19" ry="18"/>
<text text-anchor="middle" x="897" y="-112.68" font-family="Times,serif" font-size="8.00" fill="#ffffff">reverse the partial exec queue</text>
</g>
<!-- ExecutionQueueBase__more_tasks&#45;&gt;ExecutionQueueBase__more_tasks_reverse_queue -->
<g id="edge26" class="edge">
<title>ExecutionQueueBase__more_tasks&#45;&gt;ExecutionQueueBase__more_tasks_reverse_queue</title>
<path fill="none" stroke="black" d="M734.2,-194.14C767.76,-178.11 820.43,-152.95 856.73,-135.62"/>
<polygon fill="black" stroke="black" points="858.53,-138.64 866.04,-131.17 855.51,-132.32 858.53,-138.64"/>
<text text-anchor="middle" x="825" y="-157.47" font-family="Times,serif" font-size="7.00">3.</text>
</g>
<!-- return -->
<g id="node27" class="node">
<title>return</title>
<ellipse fill="#555555" stroke="#555555" cx="554" cy="-115.38" rx="27" ry="18"/>
<text text-anchor="middle" x="554" y="-112.68" font-family="Times,serif" font-size="8.00" fill="#ffffff">return</text>
</g>
<!-- ExecutionQueueBase__more_tasks&#45;&gt;return -->
<g id="edge25" class="edge">
<title>ExecutionQueueBase__more_tasks&#45;&gt;return</title>
<path fill="none" stroke="red" d="M653.19,-196.87C633.57,-190.26 611.51,-180.78 594,-167.77 584.27,-160.54 575.68,-150.36 568.98,-140.96"/>
<polygon fill="red" stroke="red" points="571.87,-138.99 563.37,-132.66 566.07,-142.91 571.87,-138.99"/>
<text text-anchor="middle" x="647" y="-161.47" font-family="Times,serif" font-size="7.00">2. if exchange failed</text>
<text text-anchor="middle" x="647" y="-153.47" font-family="Times,serif" font-size="7.00">no new nodes appended to the _head</text>
</g>
<!-- after_old_head -->
<g id="node50" class="node">
<title>after_old_head</title>
<ellipse fill="darkgreen" stroke="darkgreen" cx="1454" cy="-651.39" rx="45.73" ry="18"/>
<text text-anchor="middle" x="1454" y="-646.79" font-family="Times,serif" font-size="14.00" fill="#ffffff">old_head</text>
</g>
<!-- ExecutionQueueBase__more_tasks&#45;&gt;after_old_head -->
<g id="edge54" class="edge">
<title>ExecutionQueueBase__more_tasks&#45;&gt;after_old_head</title>
<path fill="none" stroke="red" stroke-dasharray="5,2" d="M747.19,-224.91C759.71,-228.46 773.34,-232.16 786,-235.27 823.92,-244.58 847.38,-222.96 872,-253.27 876.48,-258.79 876.09,-263.45 872,-269.27 858.42,-288.59 841.42,-273.83 822,-287.27 796.08,-305.21 786.89,-311.68 776,-341.27 753.83,-401.48 849.45,-387.99 874,-447.27 882.42,-467.59 878.06,-475.14 874,-496.76 872.42,-505.2 869.01,-506.42 867,-514.76 846.73,-598.92 855.89,-608.61 858,-610.76 868.55,-621.51 1385.45,-616.89 1400,-620.76 1411.37,-623.79 1422.94,-629.69 1432.43,-635.43"/>
</g>
<!-- ExecuttonQueeuBase__execute_func_anno -->
<g id="node21" class="node">
<title>ExecuttonQueeuBase__execute_func_anno</title>
<polygon fill="brown" stroke="brown" points="508.5,-60 311.5,-60 311.5,-16 514.5,-16 514.5,-54 508.5,-60"/>
<polyline fill="none" stroke="brown" points="508.5,-60 508.5,-54 "/>
<polyline fill="none" stroke="brown" points="514.5,-54 508.5,-54 "/>
<text text-anchor="middle" x="413" y="-48.8" font-family="Times,serif" font-size="8.00" fill="#ffffff">this is the user function</text>
<text text-anchor="middle" x="413" y="-39.8" font-family="Times,serif" font-size="8.00" fill="#ffffff">user function must iterate all the TaskNodes to execute</text>
<text text-anchor="middle" x="413" y="-30.8" font-family="Times,serif" font-size="8.00" fill="#ffffff">if not iterated there may be some tasks not excuted</text>
<text text-anchor="middle" x="413" y="-21.8" font-family="Times,serif" font-size="8.00" fill="#ffffff">this is bad because the user logic couples with the queue&#39;s</text>
</g>
<!-- ExecuttonQueeuBase__execute_func&#45;&gt;ExecuttonQueeuBase__execute_func_anno -->
<g id="edge21" class="edge">
<title>ExecuttonQueeuBase__execute_func&#45;&gt;ExecuttonQueeuBase__execute_func_anno</title>
<path fill="none" stroke="black" stroke-dasharray="5,2" d="M413,-96.9C413,-85.94 413,-71.74 413,-60.15"/>
</g>
<!-- ExecuttonQueeuBase__execute_func_anno&#45;&gt;after_old_head -->
<g id="edge53" class="edge">
<title>ExecuttonQueeuBase__execute_func_anno&#45;&gt;after_old_head</title>
<path fill="none" stroke="red" stroke-dasharray="5,2" d="M514.63,-40.77C653.22,-44.67 893.06,-57.14 970,-97 1224.71,-228.95 1405.23,-555.75 1445.51,-633.57"/>
</g>
<!-- ExecutionQueueBase__execute_tasks_loop&#45;&gt;ExecutionQueueBase__execute -->
<g id="edge29" class="edge">
<title>ExecutionQueueBase__execute_tasks_loop&#45;&gt;ExecutionQueueBase__execute</title>
<path fill="none" stroke="black" d="M324.67,-293.36C331.06,-291.29 337.73,-289.17 344,-287.27 372.27,-278.67 381.16,-281.61 408,-269.27 419.65,-263.91 420.61,-259.15 432,-253.27 450.4,-243.76 471.47,-235.19 490.16,-228.33"/>
<polygon fill="black" stroke="black" points="491.47,-231.58 499.69,-224.9 489.09,-224.99 491.47,-231.58"/>
<text text-anchor="middle" x="472" y="-262.97" font-family="Times,serif" font-size="7.00" fill="red">2. run current node</text>
<text text-anchor="middle" x="472" y="-254.97" font-family="Times,serif" font-size="7.00" fill="red">with corresponding priority</text>
</g>
<!-- ExecutionQueueBase__execute_tasks_loop&#45;&gt;ExecutionQueueBase__more_tasks -->
<g id="edge32" class="edge">
<title>ExecutionQueueBase__execute_tasks_loop&#45;&gt;ExecutionQueueBase__more_tasks</title>
<path fill="none" stroke="black" d="M323.33,-292.86C330.08,-290.73 337.22,-288.72 344,-287.27 417.42,-271.51 440.08,-290.86 512,-269.27 526.85,-264.81 528.47,-258.67 543,-253.27 575.13,-241.32 584.83,-243.93 618,-235.27 627.25,-232.85 637.04,-230.18 646.55,-227.53"/>
<polygon fill="black" stroke="black" points="647.63,-230.87 656.31,-224.79 645.74,-224.13 647.63,-230.87"/>
<text text-anchor="middle" x="578" y="-262.97" font-family="Times,serif" font-size="7.00">5. find more tasks to run</text>
<text text-anchor="middle" x="578" y="-254.97" font-family="Times,serif" font-size="7.00">get </text>
</g>
<!-- ExecutionQueueBase__execute_tasks_loop_release -->
<g id="node28" class="node">
<title>ExecutionQueueBase__execute_tasks_loop_release</title>
<ellipse fill="#555555" stroke="#555555" cx="250" cy="-210.52" rx="62.29" ry="18"/>
<text text-anchor="middle" x="250" y="-207.82" font-family="Times,serif" font-size="8.00" fill="#ffffff">release memory of task node</text>
</g>
<!-- ExecutionQueueBase__execute_tasks_loop&#45;&gt;ExecutionQueueBase__execute_tasks_loop_release -->
<g id="edge28" class="edge">
<title>ExecutionQueueBase__execute_tasks_loop&#45;&gt;ExecutionQueueBase__execute_tasks_loop_release</title>
<path fill="none" stroke="black" d="M269.11,-289.72C262.37,-284.19 255.8,-277.27 252,-269.27 247.58,-259.95 246.38,-248.8 246.54,-238.8"/>
<polygon fill="black" stroke="black" points="250.05,-238.72 247.15,-228.53 243.06,-238.3 250.05,-238.72"/>
<text text-anchor="middle" x="290" y="-258.97" font-family="Times,serif" font-size="7.00">1. if current node executed</text>
</g>
<!-- ExecutionQueueBase__execute_tasks_loop_find_tail -->
<g id="node29" class="node">
<title>ExecutionQueueBase__execute_tasks_loop_find_tail</title>
<ellipse fill="red" stroke="red" cx="393" cy="-210.52" rx="62.29" ry="18"/>
<text text-anchor="middle" x="393" y="-207.82" font-family="Times,serif" font-size="8.00" fill="#ffffff">find current tail for reversing</text>
</g>
<!-- ExecutionQueueBase__execute_tasks_loop&#45;&gt;ExecutionQueueBase__execute_tasks_loop_find_tail -->
<g id="edge31" class="edge">
<title>ExecutionQueueBase__execute_tasks_loop&#45;&gt;ExecutionQueueBase__execute_tasks_loop_find_tail</title>
<path fill="none" stroke="black" d="M309.13,-288.53C325.19,-273.79 349.38,-251.57 367.67,-234.78"/>
<polygon fill="black" stroke="black" points="370.1,-237.3 375.1,-227.95 365.37,-232.14 370.1,-237.3"/>
<text text-anchor="middle" x="375" y="-258.97" font-family="Times,serif" font-size="7.00">4. if cur_tail == null</text>
</g>
<!-- ExecutionQueueBase__execute_tasks_loop_refresh_cur_head -->
<g id="node30" class="node">
<title>ExecutionQueueBase__execute_tasks_loop_refresh_cur_head</title>
<ellipse fill="#555555" stroke="#555555" cx="93" cy="-210.52" rx="77.15" ry="25"/>
<text text-anchor="middle" x="93" y="-216.82" font-family="Times,serif" font-size="8.00" fill="#ffffff">Release TaskNode until</text>
<text text-anchor="middle" x="93" y="-207.82" font-family="Times,serif" font-size="8.00" fill="#ffffff">uniterated task or last task</text>
<text text-anchor="middle" x="93" y="-198.82" font-family="Times,serif" font-size="8.00" fill="#ffffff">refresh cur head for next run</text>
</g>
<!-- ExecutionQueueBase__execute_tasks_loop&#45;&gt;ExecutionQueueBase__execute_tasks_loop_refresh_cur_head -->
<g id="edge30" class="edge">
<title>ExecutionQueueBase__execute_tasks_loop&#45;&gt;ExecutionQueueBase__execute_tasks_loop_refresh_cur_head</title>
<path fill="none" stroke="black" d="M264.33,-291.37C233.51,-277.01 183.02,-253.47 144.81,-235.66"/>
<polygon fill="black" stroke="black" points="145.92,-232.32 135.38,-231.27 142.96,-238.67 145.92,-232.32"/>
<text text-anchor="middle" x="219" y="-258.97" font-family="Times,serif" font-size="7.00">3</text>
</g>
<!-- before9 -->
<g id="node32" class="node">
<title>before9</title>
<polygon fill="blue" stroke="blue" points="1578,-747.02 1524,-747.02 1524,-711.02 1578,-711.02 1578,-747.02"/>
<text text-anchor="middle" x="1551" y="-724.42" font-family="Times,serif" font-size="14.00" fill="#ffffff">9</text>
</g>
<!-- before8 -->
<g id="node33" class="node">
<title>before8</title>
<polygon fill="blue" stroke="blue" points="1668,-747.02 1614,-747.02 1614,-711.02 1668,-711.02 1668,-747.02"/>
<text text-anchor="middle" x="1641" y="-724.42" font-family="Times,serif" font-size="14.00" fill="#ffffff">8</text>
</g>
<!-- before9&#45;&gt;before8 -->
<g id="edge36" class="edge">
<title>before9&#45;&gt;before8</title>
<path fill="none" stroke="black" d="M1578.07,-729.02C1586.67,-729.02 1595.27,-729.02 1603.87,-729.02"/>
<polygon fill="black" stroke="black" points="1603.96,-732.52 1613.96,-729.02 1603.96,-725.52 1603.96,-732.52"/>
</g>
<!-- before__head -->
<g id="node41" class="node">
<title>before__head</title>
<ellipse fill="darkgreen" stroke="darkgreen" cx="1558" cy="-651.39" rx="34.42" ry="18"/>
<text text-anchor="middle" x="1558" y="-646.79" font-family="Times,serif" font-size="14.00" fill="#ffffff">_head</text>
</g>
<!-- before9&#45;&gt;before__head -->
<g id="edge41" class="edge">
<title>before9&#45;&gt;before__head</title>
<path fill="none" stroke="black" d="M1553.54,-700.58C1554.5,-690.19 1555.57,-678.66 1556.42,-669.49"/>
<polygon fill="black" stroke="black" points="1550.03,-700.58 1552.59,-710.86 1557,-701.22 1550.03,-700.58"/>
</g>
<!-- before7 -->
<g id="node34" class="node">
<title>before7</title>
<polygon fill="blue" stroke="blue" points="1758,-747.02 1704,-747.02 1704,-711.02 1758,-711.02 1758,-747.02"/>
<text text-anchor="middle" x="1731" y="-724.42" font-family="Times,serif" font-size="14.00" fill="#ffffff">7</text>
</g>
<!-- before8&#45;&gt;before7 -->
<g id="edge37" class="edge">
<title>before8&#45;&gt;before7</title>
<path fill="none" stroke="black" d="M1668.07,-729.02C1676.67,-729.02 1685.27,-729.02 1693.87,-729.02"/>
<polygon fill="black" stroke="black" points="1693.96,-732.52 1703.96,-729.02 1693.96,-725.52 1693.96,-732.52"/>
</g>
<!-- before6 -->
<g id="node35" class="node">
<title>before6</title>
<polygon fill="blue" stroke="blue" points="1848,-747.02 1794,-747.02 1794,-711.02 1848,-711.02 1848,-747.02"/>
<text text-anchor="middle" x="1821" y="-724.42" font-family="Times,serif" font-size="14.00" fill="#ffffff">6</text>
</g>
<!-- before7&#45;&gt;before6 -->
<g id="edge38" class="edge">
<title>before7&#45;&gt;before6</title>
<path fill="none" stroke="black" d="M1758.07,-729.02C1766.67,-729.02 1775.27,-729.02 1783.87,-729.02"/>
<polygon fill="black" stroke="black" points="1783.96,-732.52 1793.96,-729.02 1783.96,-725.52 1783.96,-732.52"/>
</g>
<!-- before_new_head -->
<g id="node39" class="node">
<title>before_new_head</title>
<ellipse fill="darkgreen" stroke="darkgreen" cx="1670" cy="-651.39" rx="49.78" ry="18"/>
<text text-anchor="middle" x="1670" y="-646.79" font-family="Times,serif" font-size="14.00" fill="#ffffff">new_head</text>
</g>
<!-- before7&#45;&gt;before_new_head -->
<g id="edge42" class="edge">
<title>before7&#45;&gt;before_new_head</title>
<path fill="none" stroke="black" d="M1710.88,-703.07C1701.84,-691.87 1691.42,-678.95 1683.37,-668.97"/>
<polygon fill="black" stroke="black" points="1708.16,-705.27 1717.16,-710.86 1713.6,-700.88 1708.16,-705.27"/>
</g>
<!-- before5 -->
<g id="node36" class="node">
<title>before5</title>
<polygon fill="blue" stroke="blue" points="1938,-747.02 1884,-747.02 1884,-711.02 1938,-711.02 1938,-747.02"/>
<text text-anchor="middle" x="1911" y="-724.42" font-family="Times,serif" font-size="14.00" fill="#ffffff">5</text>
</g>
<!-- before6&#45;&gt;before5 -->
<g id="edge39" class="edge">
<title>before6&#45;&gt;before5</title>
<path fill="none" stroke="black" d="M1848.07,-729.02C1856.67,-729.02 1865.27,-729.02 1873.87,-729.02"/>
<polygon fill="black" stroke="black" points="1873.96,-732.52 1883.96,-729.02 1873.96,-725.52 1873.96,-732.52"/>
</g>
<!-- before_null -->
<g id="node37" class="node">
<title>before_null</title>
<polygon fill="blue" stroke="blue" points="2028,-747.02 1974,-747.02 1974,-711.02 2028,-711.02 2028,-747.02"/>
<text text-anchor="middle" x="2001" y="-724.42" font-family="Times,serif" font-size="14.00" fill="#ffffff">null</text>
</g>
<!-- before5&#45;&gt;before_null -->
<g id="edge40" class="edge">
<title>before5&#45;&gt;before_null</title>
<path fill="none" stroke="black" d="M1938.07,-729.02C1946.67,-729.02 1955.27,-729.02 1963.87,-729.02"/>
<polygon fill="black" stroke="black" points="1963.96,-732.52 1973.96,-729.02 1963.96,-725.52 1963.96,-732.52"/>
</g>
<!-- before_old_head -->
<g id="node40" class="node">
<title>before_old_head</title>
<ellipse fill="darkgreen" stroke="darkgreen" cx="1783" cy="-651.39" rx="45.73" ry="18"/>
<text text-anchor="middle" x="1783" y="-646.79" font-family="Times,serif" font-size="14.00" fill="#ffffff">old_head</text>
</g>
<!-- before5&#45;&gt;before_old_head -->
<g id="edge43" class="edge">
<title>before5&#45;&gt;before_old_head</title>
<path fill="none" stroke="black" d="M1874.98,-706.74C1853.43,-694.01 1826.62,-678.16 1807.51,-666.87"/>
<polygon fill="black" stroke="black" points="1873.46,-709.91 1883.85,-711.98 1877.03,-703.88 1873.46,-709.91"/>
</g>
<!-- before_tail_anno -->
<g id="node38" class="node">
<title>before_tail_anno</title>
<polygon fill="brown" stroke="brown" points="2021.5,-669.39 1846.5,-669.39 1846.5,-633.39 2027.5,-633.39 2027.5,-663.39 2021.5,-669.39"/>
<polyline fill="none" stroke="brown" points="2021.5,-669.39 2021.5,-663.39 "/>
<polyline fill="none" stroke="brown" points="2027.5,-663.39 2021.5,-663.39 "/>
<text text-anchor="middle" x="1937" y="-657.69" font-family="Times,serif" font-size="8.00" fill="#ffffff">there must be NULL when it checks for more tasks</text>
<text text-anchor="middle" x="1937" y="-648.69" font-family="Times,serif" font-size="8.00" fill="#ffffff">because when it comes to old_head for execution</text>
<text text-anchor="middle" x="1937" y="-639.69" font-family="Times,serif" font-size="8.00" fill="#ffffff">there was only that node of head at that time</text>
</g>
<!-- before_null&#45;&gt;before_tail_anno -->
<g id="edge35" class="edge">
<title>before_null&#45;&gt;before_tail_anno</title>
<path fill="none" stroke="black" stroke-dasharray="5,2" d="M1986.48,-710.86C1976,-698.48 1961.93,-681.85 1951.47,-669.49"/>
</g>
<!-- after9 -->
<g id="node42" class="node">
<title>after9</title>
<polygon fill="blue" stroke="blue" points="1064,-747.02 1010,-747.02 1010,-711.02 1064,-711.02 1064,-747.02"/>
<text text-anchor="middle" x="1037" y="-724.42" font-family="Times,serif" font-size="14.00" fill="#ffffff">9</text>
</g>
<!-- after8 -->
<g id="node43" class="node">
<title>after8</title>
<polygon fill="blue" stroke="blue" points="1160,-747.02 1106,-747.02 1106,-711.02 1160,-711.02 1160,-747.02"/>
<text text-anchor="middle" x="1133" y="-724.42" font-family="Times,serif" font-size="14.00" fill="#ffffff">8</text>
</g>
<!-- after9&#45;&gt;after8 -->
<g id="edge44" class="edge">
<title>after9&#45;&gt;after8</title>
<path fill="none" stroke="black" d="M1064.38,-729.02C1074.87,-729.02 1085.37,-729.02 1095.86,-729.02"/>
<polygon fill="black" stroke="black" points="1095.93,-732.52 1105.93,-729.02 1095.93,-725.52 1095.93,-732.52"/>
</g>
<!-- after__head -->
<g id="node51" class="node">
<title>after__head</title>
<ellipse fill="darkgreen" stroke="darkgreen" cx="1019" cy="-651.39" rx="34.42" ry="18"/>
<text text-anchor="middle" x="1019" y="-646.79" font-family="Times,serif" font-size="14.00" fill="#ffffff">_head</text>
</g>
<!-- after9&#45;&gt;after__head -->
<g id="edge49" class="edge">
<title>after9&#45;&gt;after__head</title>
<path fill="none" stroke="black" d="M1030.55,-700.91C1028.05,-690.43 1025.27,-678.76 1023.07,-669.49"/>
<polygon fill="black" stroke="black" points="1027.2,-701.94 1032.92,-710.86 1034,-700.32 1027.2,-701.94"/>
</g>
<!-- after7 -->
<g id="node44" class="node">
<title>after7</title>
<polygon fill="blue" stroke="blue" points="1273,-747.02 1219,-747.02 1219,-711.02 1273,-711.02 1273,-747.02"/>
<text text-anchor="middle" x="1246" y="-724.42" font-family="Times,serif" font-size="14.00" fill="#ffffff">7</text>
</g>
<!-- after8&#45;&gt;after7 -->
<g id="edge45" class="edge">
<title>after8&#45;&gt;after7</title>
<path fill="none" stroke="black" d="M1160.37,-729.02C1176.53,-729.02 1192.69,-729.02 1208.84,-729.02"/>
<polygon fill="black" stroke="black" points="1208.91,-732.52 1218.91,-729.02 1208.91,-725.52 1208.91,-732.52"/>
</g>
<!-- after6 -->
<g id="node45" class="node">
<title>after6</title>
<polygon fill="blue" stroke="blue" points="1377,-747.02 1323,-747.02 1323,-711.02 1377,-711.02 1377,-747.02"/>
<text text-anchor="middle" x="1350" y="-724.42" font-family="Times,serif" font-size="14.00" fill="#ffffff">6</text>
</g>
<!-- after7&#45;&gt;after6 -->
<g id="edge46" class="edge">
<title>after7&#45;&gt;after6</title>
<path fill="none" stroke="black" d="M1283.27,-729.02C1296.42,-729.02 1309.56,-729.02 1322.71,-729.02"/>
<polygon fill="black" stroke="black" points="1283.22,-725.52 1273.22,-729.02 1283.22,-732.52 1283.22,-725.52"/>
</g>
<!-- after_null -->
<g id="node47" class="node">
<title>after_null</title>
<polygon fill="blue" stroke="blue" points="1273,-669.39 1219,-669.39 1219,-633.39 1273,-633.39 1273,-669.39"/>
<text text-anchor="middle" x="1246" y="-646.79" font-family="Times,serif" font-size="14.00" fill="#ffffff">null</text>
</g>
<!-- after7&#45;&gt;after_null -->
<g id="edge48" class="edge">
<title>after7&#45;&gt;after_null</title>
<path fill="none" stroke="black" d="M1246,-710.86C1246,-701.67 1246,-690.14 1246,-679.75"/>
<polygon fill="black" stroke="black" points="1249.5,-679.49 1246,-669.49 1242.5,-679.49 1249.5,-679.49"/>
</g>
<!-- after_new_head -->
<g id="node48" class="node">
<title>after_new_head</title>
<ellipse fill="darkgreen" stroke="darkgreen" cx="1341" cy="-651.39" rx="49.78" ry="18"/>
<text text-anchor="middle" x="1341" y="-646.79" font-family="Times,serif" font-size="14.00" fill="#ffffff">new_head</text>
</g>
<!-- after7&#45;&gt;after_new_head -->
<g id="edge50" class="edge">
<title>after7&#45;&gt;after_new_head</title>
<path fill="none" stroke="black" d="M1275.53,-704.51C1290.49,-692.6 1308.23,-678.48 1321.47,-667.94"/>
<polygon fill="black" stroke="black" points="1273.2,-701.89 1267.56,-710.86 1277.56,-707.37 1273.2,-701.89"/>
</g>
<!-- after_new_tail -->
<g id="node49" class="node">
<title>after_new_tail</title>
<ellipse fill="darkgreen" stroke="darkgreen" cx="1136" cy="-651.39" rx="65.11" ry="22.76"/>
<text text-anchor="middle" x="1136" y="-654.39" font-family="Times,serif" font-size="10.00" fill="#ffffff">new_tail</text>
<text text-anchor="middle" x="1136" y="-642.39" font-family="Times,serif" font-size="10.00" fill="#ffffff">(as next old_head)</text>
</g>
<!-- after7&#45;&gt;after_new_tail -->
<g id="edge51" class="edge">
<title>after7&#45;&gt;after_new_tail</title>
<path fill="none" stroke="black" d="M1212.78,-705.18C1197.33,-694.56 1179.14,-682.05 1164.35,-671.88"/>
<polygon fill="black" stroke="black" points="1210.82,-708.08 1221.04,-710.86 1214.78,-702.31 1210.82,-708.08"/>
</g>
<!-- after5 -->
<g id="node46" class="node">
<title>after5</title>
<polygon fill="blue" stroke="blue" points="1474,-747.02 1420,-747.02 1420,-711.02 1474,-711.02 1474,-747.02"/>
<text text-anchor="middle" x="1447" y="-724.42" font-family="Times,serif" font-size="14.00" fill="#ffffff">5</text>
</g>
<!-- after6&#45;&gt;after5 -->
<g id="edge47" class="edge">
<title>after6&#45;&gt;after5</title>
<path fill="none" stroke="black" d="M1387.57,-729.02C1398.3,-729.02 1409.03,-729.02 1419.77,-729.02"/>
<polygon fill="black" stroke="black" points="1387.28,-725.52 1377.28,-729.02 1387.28,-732.52 1387.28,-725.52"/>
</g>
<!-- after5&#45;&gt;after_old_head -->
<g id="edge52" class="edge">
<title>after5&#45;&gt;after_old_head</title>
<path fill="none" stroke="black" d="M1449.54,-700.58C1450.5,-690.19 1451.57,-678.66 1452.42,-669.49"/>
<polygon fill="black" stroke="black" points="1446.03,-700.58 1448.59,-710.86 1453,-701.22 1446.03,-700.58"/>
</g>
</g>

<!--
Copyright 2019, Gavin Chou, gavineaglechou@gmail.com

Permission is hereby granted, free of charge, to any person obtaining a copy of
this software and associated documentation files (the "Software"), to deal in
the Software without restriction, including without limitation the rights to
use, copy, modify, merge, publish, distribute, sublicense, and/or sell copies of
the Software, and to permit persons to whom the Software is furnished to do so,
subject to the following conditions:

The above copyright notice and this permission notice shall be included in all
copies or substantial portions of the Software.

THE SOFTWARE IS PROVIDED "AS IS", WITHOUT WARRANTY OF ANY KIND, EXPRESS OR
IMPLIED, INCLUDING BUT NOT LIMITED TO THE WARRANTIES OF MERCHANTABILITY, FITNESS
FOR A PARTICULAR PURPOSE AND NONINFRINGEMENT. IN NO EVENT SHALL THE AUTHORS OR
COPYRIGHT HOLDERS BE LIABLE FOR ANY CLAIM, DAMAGES OR OTHER LIABILITY, WHETHER
IN AN ACTION OF CONTRACT, TORT OR OTHERWISE, ARISING FROM, OUT OF OR IN
CONNECTION WITH THE SOFTWARE OR THE USE OR OTHER DEALINGS IN THE SOFTWARE.
-->

<style>
.node {
  fill: blue;
}
.node:hover {
  fill: lightblue;
}
.fade {
  opacity: 0.2;
}
.fade:hover {
  opacity: 1.0;
}
.arrow-path {
  stroke: blue;
}
.arrow-head-tail {
  fill: blue;
  stroke: blue;
}
</style>

<script xlink:href="https://ajax.aspnetcdn.com/ajax/jQuery/jquery-3.4.0.min.js"></script>
<script>

// configure to switch hilight effect
const HILIGHT = 1;
const FADE = 2;
var style = HILIGHT;

$(document).ready(function() {
var allNodes = $('.node');
var allEdges = $('.edge');
var allNodeTitles = allNodes.find('title');
var allEdgeTitles = allEdges.find('title');
var nodeAreas = allNodes.find('[fill]'); // including text

nodeAreas.click(function() {
  var nonHiClass = style == FADE ? 'fade' : 'none';
  var hiClass = style == FADE ? 'none' : 'node';
  var arrowPathClass = style == FADE ? 'none' : 'arrow-path';
  var arrowHeadTailClass = style == FADE ? 'none'  : 'arrow-head-tail';
  var arrowTextClass = 'none'; // always remains none;

  // TODO: only nodes and edges, which can be recorded, modified should be
  //       considered
  allNodes.each(function(index) {
    $(this).find('[fill]:not(text)').attr('class', nonHiClass);
  });
  allEdges.each(function(index) {
    $(this).find('*').attr('class', nonHiClass);
  });
  // highlight current node first
  $(this).parent().find('[fill]:not(text)').attr('class', hiClass);
  // console.log($(this).parent());
  // console.log(title);
  var highlight = function(title) {
    // for all adj, Node
    allEdgeTitles.each(function(index) {
      // console.log($(this).text());
      var arrow = $(this).text().split('->'); // &#45;&gt;
      if (!(arrow[0] === title || arrow[1] === title)) {
        return;
      }
      // TODO: compare nodes that arrow heads attatched to
      $(this).parent().find('path').attr('class', arrowPathClass);
      $(this).parent().find('polygon').attr('class', arrowHeadTailClass);
      $(this).parent().find('text').attr('class', 'arrowTextClass');
      // console.log(arrow);
      allNodeTitles.each(function(index) {
        // process parent node only
        if (!($(this).text() === arrow[0])) {
          return;
        }
        if ($(this).parent().find('[fill]').attr('class') === hiClass) {
          return;
        }
        $(this).parent().find('[fill]:not(text)').attr('class', hiClass);
        highlight(arrow[0]);
      });
    });
  };
  var clickedTitle = $(this).parent().find('title').text();
  highlight(clickedTitle);
});

});
</script>
<!--
vim: et ts=2 sw=2 ft=javascript:
-->
</svg>
